<svg id="Layer_1" data-name="Layer 1" xmlns="http://www.w3.org/2000/svg" viewBox="0 0 637.11 238.29"><title>nomadlogo</title><path d="M237.86,248.75a11.77,11.77,0,0,0-1.45-.49c-1.53-.28-2.61-.79-2.79-2.68-.16-1.63-.75-1.66-2.57-1.63-3,.06-6-.07-9-.15-2.51-.06-5-.16-7.54-.26-4.59-.18-9.19-.32-13.78-.57-5.09-.27-10.17-.64-15.26-1-1-.06-2-.1-2.91-.14l-10.29-32.41c-1.86,5.79-1.37,11.74-2.07,17.89-9.21-9.6-14.73-20.89-19.22-33l1.93-.8c1.54-.66,1.9-1.13,1.8-2.8a45.06,45.06,0,0,0-.57-4.91c-.39-2.26-.48-4.71-1.48-6.68-1.74-3.43-1.23-6.95-1.46-10.64l1.56-.23c.16-1.15.34-2.34.49-3.53.1-.75.22-1.49,1.21-1.45s1.33.68,1.42,1.58c.11,1.07.27,2.13.43,3.34l1.58.22q0,4.27,0,8.57c0,.14,0,.35-.08.41-1.64,1.23-.88,3-1.06,4.57a9.46,9.46,0,0,1-.47,3.17c-.77,1.49-.43,2.94-.28,4.38a6.83,6.83,0,0,0,4.75,6.1c3.91,1.44,7.77,3,11.73,4.33a4.74,4.74,0,0,1,3.57,3.31c.77,2.76,1.55,5.53,2.22,8.32,1.36,5.66,2.54,11.36,4,17,.72,2.69,2,5.22,3,7.84a4.08,4.08,0,0,0,3.5,2.79c5.19.75,10.36,1.72,15.57,2.24,5.71.56,11.46.73,17.2,1,3.23.17,6.46.28,9.69.41a6.6,6.6,0,0,0,1-.14c-.24-2.93,1.84-4.07,4-4.89,1.39-.52,1.62-1.32,1.61-2.6-.06-3.89,0-7.77,0-11.66,0-15,0-29.95,0-44.92a20,20,0,0,0-.65-4.66c-1.17-4.75-2.55-9.47-2.46-14.4.06-2.86.53-5.71.87-8.56q1.11-9.4,2.28-18.8a1.87,1.87,0,0,1,.73-1.28c.42,2.73.87,5.46,1.24,8.2.82,6.11,1.67,12.23,2.36,18.36a21.73,21.73,0,0,1-.1,6c-.65,3.82-1.61,7.58-2.42,11.38a13.52,13.52,0,0,0-.38,2.75q0,28.29,0,56.58c0,.77.07,1.54.11,2.41.84,0,1.47.1,2.11.11,1.09,0,1.51.58,1.55,1.63.06,1.36.2,2.72.33,4.07.38,3.77-.39,5.08-4.11,6.54v2.6q0,56.91,0,113.81c0,.91-.06,1.81-.09,2.72l-.48.2c-.27-.29-.72-.55-.79-.88a11.83,11.83,0,0,1-.07-2.15q0-56.91,0-113.81Z" transform="translate(-123.92 -131)"/><path d="M154.4,276.86a363.46,363.46,0,0,0-9.27-82.06c2.45-1.32,3.17-1.11,4.26,1.26,2.1,4.57,4.23,9.13,6.23,13.75A70.64,70.64,0,0,0,168,228.66a7.49,7.49,0,0,1,2.05,5.46,122.43,122.43,0,0,0,.82,16.76,19.74,19.74,0,0,1-2.89,12.6,42.38,42.38,0,0,1-12.57,13.14A4.28,4.28,0,0,1,154.4,276.86Z" transform="translate(-123.92 -131)"/><path d="M165.68,300.86c4.32-1.66,8.51-3.14,13-3.4,7-.39,13.91-.6,20.86-1.06a84.41,84.41,0,0,1,20.8,1.39c.12,0,.27-.07.61-.16a8.66,8.66,0,0,0-1.11-1q-8.48-5.14-17-10.24c-6.34-3.82-12.71-7.61-19-11.49a32.14,32.14,0,0,1-3.4-2.79l3.61-4.64A65.83,65.83,0,0,1,195.34,274c5.59,4.28,11.18,8.56,16.68,12.94a111.92,111.92,0,0,0,12.74,8.41c1.42.85,2.81,1.74,4.22,2.6.65.4,1.16.87,1,1.72s-.93.89-1.65,1a34.84,34.84,0,0,1-10.08-.4,259.17,259.17,0,0,0-29.42-2,61.7,61.7,0,0,0-12.4.94c-2.28.41-2.61.63-2.68,2.85s.14,4.42.26,6.63q.25,4.4.55,8.8c.3,4.15.62,8.29.93,12.44,0,.26,0,.52,0,1.09a9.64,9.64,0,0,1-3.71-4.85A211.41,211.41,0,0,1,165.68,300.86Z" transform="translate(-123.92 -131)"/><path d="M142.25,164.2c.38-2.76.65-5.32,1.09-7.85a15.9,15.9,0,0,1,2.84-6.92,11.19,11.19,0,0,1,18.21.65,21.09,21.09,0,0,1,3,9.35c.18,1.64.27,3.28.41,5,.4.17.85.37,1.3.55a4.23,4.23,0,0,1,2.71,3.11,18.35,18.35,0,0,1-.08,8.74c-.63,2.73-1.88,3.58-4.73,3.69-.82,0-1.61.45-2.43.56a14.66,14.66,0,0,1-3.57.25c-1-.11-1.16-1.11-1.15-2,0-2.95,0-5.9,0-8.85,0-1.65,0-3.31,0-5s.44-2.17,2.13-2.26c1.25-.07,2.45-.05,3.23,1.19.11.18.49.2,1,.38a7,7,0,0,0,.29-1.7c-.38-3.82-1.16-7.51-3.39-10.77a9.72,9.72,0,0,0-10.7-4.14,9.88,9.88,0,0,0-4.71,3.3c-3,3.52-3.78,7.77-4,12.15,1.31-.15,2.47-.38,3.62-.39,1.58,0,2,.46,2.11,2.07,0,.21,0,.43,0,.65q0,6.37,0,12.73c0,1,.15,2.28-1,2.59-1.33.35-2.89.73-4-.5a2.17,2.17,0,0,0-1.88-.78c-2.56.17-4-1.28-4.93-3.43A13.35,13.35,0,0,1,137,169C137.49,166.15,139,164.22,142.25,164.2Z" transform="translate(-123.92 -131)"/><path d="M146,306.55c-.45-.4-.93-.77-1.35-1.2-2.56-2.61-3.52-5.91-3.76-9.4-.33-4.72-.53-9.46-.57-14.2,0-5.1.3-10.21.2-15.3-.12-6.17-.52-12.33-.8-18.49-.1-2.22-.21-4.45-.3-6.67-.2-4.88-.23-9.76-.64-14.62-.63-7.54-.55-15.08-.5-22.62a22.65,22.65,0,0,1,.69-5.32c.45-1.78,1.29-3.43,3.59-3.35,1,1.36,3.57,11.61,3.66,15.25L144,207.22l-.41.13c-.13,1.75-.39,3.51-.37,5.26a182.46,182.46,0,0,1-1.42,22.33,90.54,90.54,0,0,0-.11,9.66c0,.36,0,.72,0,1.08.29,7.24.56,14.49.87,21.73a53.82,53.82,0,0,0,1.81,13.19c.62,2.06,1.47,4.05,2.19,6.08a22.42,22.42,0,0,1,1,3.29c.37,1.95.39,3.85-1.2,5.43a4.54,4.54,0,0,0-1.06,4.61c.34,1.32.75,2.63,1,4a17,17,0,0,1,.2,2.26Z" transform="translate(-123.92 -131)"/><path d="M165.45,369.29H123.92a3.48,3.48,0,0,1,2.7-1.47q4.37-.62,8.76-1.13c6.2-.71,12.42-1.34,18.62-2.12a12.52,12.52,0,0,0,3.86-1.28,4.89,4.89,0,0,0,2.86-4.72c-.12-5-.35-9.9-.53-14.85,0-.22,0-.43,0-.65-.1-5.39-.21-10.78-.29-16.17q-.15-10.68-.25-21.36c0-2.17,1.5-5.74,3.33-7.73.24,1.57.41,3,.66,4.34.73,4,1.6,8,2.21,12.06a22.76,22.76,0,0,1,.21,6.2c-.85,6.69-2,13.35-2.88,20a68.9,68.9,0,0,0,0,15.7c.2,2.07.34,4.15.7,6.2C164.24,364.58,164.86,366.78,165.45,369.29Z" transform="translate(-123.92 -131)"/><path d="M155.52,338.48c-.28-3.64-.57-7.28-.83-10.92q-.44-6.33-.83-12.67-.19-3.12-.31-6.24c-.12-3.23-.2-6.46-.32-9.69-.07-1.94-.19-3.87-.28-5.81a1.83,1.83,0,0,1,1.2-2.06c3.5-1.26,6.16-3.75,8.57-6.37a106,106,0,0,0,8.53-10.55c3.88-5.49,5.86-11.81,7.08-18.38.09-.47.23-.93.35-1.45,1.57,1.09,4.2,4.69,4.4,6.3a4.17,4.17,0,0,1-.5,2.42c-1.1,1.94-2.3,3.83-3.58,5.65Q170.4,281,161.69,293.19a16.68,16.68,0,0,0-3.29,7.19c-.64,4.25-1.23,8.51-1.67,12.79-.83,8.1-.55,16.23-.62,24.35,0,.33-.07.66-.1,1Z" transform="translate(-123.92 -131)"/><path d="M173,245.85a23.13,23.13,0,0,0,1.57,3.42c1.91,2.87,1.77,5.82,1,9a51.89,51.89,0,0,1-13,23.46,38.54,38.54,0,0,1-7.14,6.08c-1-1.9-2.06-3.67-2.93-5.51-.6-1.28-.28-1.9.92-2.67,2.54-1.62,5.18-3.11,7.57-4.92a36.31,36.31,0,0,0,11.86-15c1.34-3.21.95-6.47.45-9.75-.2-1.32-.44-2.63-.67-3.94Z" transform="translate(-123.92 -131)"/><path d="M718.45,225.62c-2.1,2.7-2.06,2.48-4.72,2a31.06,31.06,0,0,0-8.18-.65,131.28,131.28,0,0,0-29.87,6.25,40.56,40.56,0,0,0-7.48,3.47c-2.5,1.45-3.06,3.05-2.18,5.78a19.57,19.57,0,0,0,2.52,5.54c4,5.46,8.88,9.92,15.76,11.15,14.44,2.58,28.95,4.4,43.63,1.85,3-.51,5.94-.84,8.89-1.38,2.72-.5,3.05-1,2.66-3.61s-.86-5.45-1.4-8.15a11.54,11.54,0,0,0-1.12-3.39c-4.44-7.89-7.37-16.35-10-25a165.11,165.11,0,0,0-7.2-18.81,121,121,0,0,1-6.42-19.07c-.27-1-.59-2.08-.81-3.14-.79-3.84-2.13-7.17-5.69-9.54-2.24-1.48-3.9-3.87-5.72-5.94-1.6-1.82-1-4.13,1.31-4.73a8.47,8.47,0,0,1,4.51.19c4.44,1.47,8.76,3.25,13.17,4.8a48.48,48.48,0,0,0,5.88,1.6c3.87.84,5,3,3.3,6.51a2.53,2.53,0,0,1-.55.92c-2.92,2.31-2.59,5.48-2.17,8.57a68.17,68.17,0,0,0,1.73,8.79c2.41,8.79,5,17.54,7.46,26.31,1.9,6.7,4,13.31,7.28,19.51a57.67,57.67,0,0,1,3.71,9.35,27.38,27.38,0,0,0,7.06,11.54,35.79,35.79,0,0,1,4.19,4.44,26.5,26.5,0,0,1,2.65,5c1.89,4.32-3.33,9.14-7.65,7.58-3.59-1.3-7.43-1.91-11.1-3a31.82,31.82,0,0,0-14.24-1.05c-13.84,2.24-27.5.73-41.12-1.85-.47-.09-.94-.21-1.41-.3-11.87-2.25-9.16-.94-18.65-10.09a34,34,0,0,1-9.84-16.44c-.72-2.89-.14-5.07,2.22-6.56a65.9,65.9,0,0,1,9.71-5.39c7.31-3,14.81-5.59,22.15-8.57,4.09-1.67,8-3.75,12-5.73,2-1,3.23-1,4.84.46q4.61,4.25,9.15,8.59A23.68,23.68,0,0,1,718.45,225.62Z" transform="translate(-123.92 -131)"/><path d="M565.88,216.3a45.76,45.76,0,0,1,4.37-2.6,19.45,19.45,0,0,0,6.66-4.76c2.32-2.59,3.5-2.25,6.17.09,3.94,3.45,8.37,6.11,14,5.27,11.38-1.71,22.76-3.4,34.11-5.25,6.79-1.11,13.54-2,20.35-.35a16.69,16.69,0,0,1,4,1.46c1.73.94,2.07,2.12,1.21,3.92a16.33,16.33,0,0,1-2,3c-2.3,2.92-4.68,5.78-7,8.71a25.11,25.11,0,0,0-2.6,3.88c-4.38,8.51-2.9,16.38,2.53,23.92,4.32,6,10.21,10,16.59,13.4,1.3.69,2.75,1.19,2.22,3.12a3.19,3.19,0,0,1-3.81,2.45c-4.84-.83-9.73-1.56-14.47-2.8s-8.37-3.89-9.78-9.05c-1.2-4.39-2.88-8.64-4.29-13a8.83,8.83,0,0,0-5.78-5.9c-15-5.43-30.25-8.35-46.21-5.78a38.55,38.55,0,0,0-5.27,1.1c-5.07,1.57-6.36,4.8-3.53,9.35a23.8,23.8,0,0,0,4.86,5.72c6.25,5.18,13.32,8,21.63,6.62,4-.66,8-1.23,12.07-1.88a7.06,7.06,0,0,0,5-3.11c1.87-2.69,3.81-2.71,6.26-.43,1.32,1.23,2.52,2.59,3.93,3.69a32.64,32.64,0,0,0,4.47,2.87c1.34.74,3.05,1,2.85,3.14a4.72,4.72,0,0,1-3.41,4.2,5.08,5.08,0,0,1-1.77.2c-10.66-1-21.31-.35-32,0-16.78.61-27.72-9.93-32.88-23.66-1.45-3.85-.11-6.84,3.48-9.2,4.13-2.72,8.78-3.72,13.59-4.28a86.4,86.4,0,0,1,32.8,2.19c5,1.34,10.08,2.12,15.12,3.2,2.45.53,4.05-.25,5.29-2.51,2.48-4.51,5.22-8.88,7.81-13.33,1.88-3.23,1.29-4.43-2.5-5-6.4-.94-12.68.05-18.91,1.36-6.8,1.43-13.5,3.51-20.37,4.43s-13.62.71-20.44.95c-2,.07-4.08-.19-6.11-.06C570.4,221.89,567.79,220.3,565.88,216.3Z" transform="translate(-123.92 -131)"/><path d="M442,217.52c-.15,3.21-.15,6.57-.51,9.88-.5,4.64-1.28,9.26-1.94,13.88-.44,3.08-.83,6.18-1.36,9.25a7.6,7.6,0,0,0,1.19,5.47c1.37,2.25,2.63,4.58,3.91,6.88a11.66,11.66,0,0,1,.93,1.94c.89,2.67-.2,4.1-2.93,3.56a32.94,32.94,0,0,1-5.81-1.86c-3.11-1.25-6.18-2.61-9.24-4-4.66-2.09-5.48-6.79-1.82-10.36a10.35,10.35,0,0,0,3.36-6.2,8.22,8.22,0,0,1,.46-2.11c4.29-10.32,4.06-21.35,5.05-32.19.12-1.31.14-2.64.35-3.94.32-2,1.59-2.86,3.56-2.35a7.26,7.26,0,0,1,2.27,1c8.12,5.66,17.18,9.54,26,13.79,2.92,1.4,5.84,2.79,8.76,4.2,3.59,1.74,6.94,1.63,9.95-1.25,4.89-4.69,10.58-8.21,16.45-11.5a10.12,10.12,0,0,1,6.56-1.36,40.32,40.32,0,0,1,5.91,1.45c3.55,1.09,7.07,2.28,10.59,3.47s7,2.39,10.5,3.68c1.81.67,2.61,2.3,3.43,4,1.31,2.67,2.85,5.23,4.27,7.84.63,1.15,1.2,2.34,1.83,3.5,2.14,3.88,4.25,7.78,6.45,11.62,1.51,2.64,4.13,3.93,6.71,5.24.85.43,1.81.67,2.64,1.14,2.6,1.44,3,3.75.86,5.86a71.42,71.42,0,0,1-5.94,5.23c-2.73,2.15-5.48,4.3-8.4,6.18a9.29,9.29,0,0,1-11.26-.23c1-2.46,1.95-4.75,2.76-7.11a68.5,68.5,0,0,0,2.37-7.9,13.31,13.31,0,0,0-1.72-9.68,29,29,0,0,1-2-5.33c-1.6-4.75-3-9.57-4.82-14.25-.46-1.2-1.87-2.18-3.06-2.92a49.14,49.14,0,0,0-18.51-6.58,6.93,6.93,0,0,0-2.85.11c-7.12,2-13.36,5.32-17.5,11.69a5.7,5.7,0,0,0-.72,3.71c.92,5.54,2.06,11,3.15,16.56a23.68,23.68,0,0,1,.81,3.13c.33,6.16,4.33,9.88,8.73,13.34.85.66,2,1.08,2.59,1.9a3.79,3.79,0,0,1,.73,2.82,2.42,2.42,0,0,1-3.09,1.77c-3.63-.77-7.45-1-10.86-2.36a97,97,0,0,1-12.76-6.52c-1.92-1.1-2.28-3-.65-5,2.43-2.93,2.3-6.17,2.13-9.52-.13-2.63-.42-5.26-.64-7.89-.53-6.18-3.93-10.11-9.61-12.25-2.58-1-5.2-1.86-7.71-3-4.35-2-8.63-4.15-12.94-6.26C445.75,216.27,445.28,216.24,442,217.52Z" transform="translate(-123.92 -131)"/><path d="M417.69,239.82a58,58,0,0,1-3.82,17.76c-.61,1.62-2.29,3-3.76,4.12-7.42,5.73-16.3,7.2-25.26,8.32a11.23,11.23,0,0,1-4.25-.44c-5.77-1.59-11.51-3.3-17.26-5-4.25-1.24-7.07-4.35-9.83-7.53-1.17-1.35-2.14-2.88-3.4-4.12-4.46-4.41-6.31-9.89-7.26-15.95-1-6.64,1.27-12.44,3.78-18.24a7.84,7.84,0,0,1,2.52-3c4.82-3.55,9.79-6.89,14.58-10.48,3.59-2.69,7.72-2.37,11.71-2.3,8.51.14,16.21,3.63,24,6.53a12.78,12.78,0,0,1,6,4.34,12.67,12.67,0,0,0,2.49,2.58c4.56,3.42,6.81,8.4,8.45,13.5C417.53,233.38,417.39,237.2,417.69,239.82Zm-43.27-28.66a16.44,16.44,0,0,0-2.13-.23,9.62,9.62,0,0,0-1.76.31c-5.72,1.3-10.65,4.21-15.31,7.65a3.57,3.57,0,0,0-1.32,1.65c-1.19,4-2.6,8.12-1.15,12.29a108.42,108.42,0,0,0,5.34,12.91,22.08,22.08,0,0,0,5,6.5c6.28,5.58,13.81,8.91,21.88,11a7.67,7.67,0,0,0,2.49.12,33.64,33.64,0,0,0,18.11-7.17c3.69-2.82,5.58-6.75,4.9-11.33a39.5,39.5,0,0,0-3-10.57c-4.59-10-13-16.07-22.66-20.48C381.37,212.32,377.86,211,374.42,211.17Z" transform="translate(-123.92 -131)"/><path d="M275.58,210a44.16,44.16,0,0,0-1.14,4.53,24.86,24.86,0,0,0-.21,4.67c.22,4.1.15,8.06-1.76,11.92-.85,1.73-.81,4-.91,6-.29,5.86-.57,11.73-.6,17.6a37.06,37.06,0,0,0,1,7.4c.42,2.11,1.34,4.12,1.73,6.23.42,2.27-.85,3.44-3.11,3.07-3.07-.5-6.12-1.09-9.18-1.66a2.65,2.65,0,0,1-1-.33c-3.14-2.19-6.43-4.2-9.33-6.66-2.3-2-2-3.9.79-5.37,4.78-2.56,7.34-6.31,8.42-11.69,1.27-6.31,3.34-12.46,5.18-18.64,1.69-5.69,2.1-11.54,2.31-17.42a3.87,3.87,0,0,0-.26-1.75c-1.14-2.37.12-3.92,1.8-5.25,1.86-1.49,3.26-1.48,5.57.08,1.79,1.2,3.41,2.67,5.23,3.81a49.4,49.4,0,0,0,5.08,2.51,10.61,10.61,0,0,1,2,.82c3,2.34,6.74,3,10.26,4.15,5.35,1.75,10.59,3.83,16,5.45,4.28,1.29,6.81,4.41,8.88,7.91,3.63,6.15,7,12.47,10.44,18.71a6.2,6.2,0,0,0,3.39,3A30.83,30.83,0,0,1,342,252.3c1.93,1.29,2.12,2.15,1.1,4.26a12.76,12.76,0,0,1-2.27,3.2,48.86,48.86,0,0,1-13.42,9.54,11.09,11.09,0,0,1-4.12,1.09c-3,.23-3.94-.84-3.61-3.82s.66-5.94.91-8.92c.52-6,.45-12-1.53-17.76a17.58,17.58,0,0,1-.38-3.91c-.1-1.06.15-2.47-.43-3.13-3.07-3.5-4.84-8.42-10.1-9.61-8.27-1.86-15.69-5.83-23.31-9.31C282,212.6,279,211.43,275.58,210Z" transform="translate(-123.92 -131)"/><path d="M287.05,327.61c0,1,0,1.48,0,1.94-.2,2.86-.54,3.26-3.46,3.27-2.15,0-4.31-.26-6.46-.32-6.46-.17-12.93-.34-19.4-.38a24,24,0,0,0-4.49.82c.23-8.09.52-15.95.64-23.81s.64-15.53-.5-23.38c2.44-1.15,4.85-1.87,7.58-1a11,11,0,0,0,3.55.4c6.59-.11,13.17-.31,19.76-.41a23,23,0,0,1,3.34.42c-.63,4-1.61,4.45-5.44,3.9-4.84-.7-9.72-1.17-14.59-1.6-1.65-.14-3.34.23-5,.25s-2.57.95-2.79,2.62c-.36,2.73-1,5.45-1.1,8.19-.08,1.49.61,3,.92,4.52s1.1,1.86,2.45,2.18c3.58.86,7.14.34,10.7.2,2.37-.09,4.73-.3,7.05-.46.83,3.73-.24,4.93-3.54,4.56q-6.76-.76-13.56-1.25c-2.52-.18-3.64.61-4.14,3-1.15,5.61-.32,11.23.4,16.81.07.59,1,1.23,1.67,1.53a4.64,4.64,0,0,0,2.13.12C270.75,329.16,278.85,329.94,287.05,327.61Z" transform="translate(-123.92 -131)"/><path d="M376.1,302.33c2.05-1.57,4-3.44,7.5-3.1l-.7,6.38c4-1,7.43-2.11,10.89-2.76a28.72,28.72,0,0,1,8.13-.59c4.75.5,7.62,3.39,8.17,8.18a32.05,32.05,0,0,1-.19,8.93c-.86,5.07-2.19,10-3.34,15.07a2.25,2.25,0,0,1-2.64,1.9,10,10,0,0,1-3.76-1.6c-.24-.16.14-1.83.66-2.46,4.43-5.32,5.4-11.64,5.29-18.22-.1-5.78-3.07-8.92-8.85-9.22-5-.26-9.82.72-13.3,4.88a5,5,0,0,0-1.16,2.47c-.37,3.57-.64,7.16-.79,10.75a11.15,11.15,0,0,0,.57,3.86c.55,1.68.9,3.3-.37,4.73-1.1,1.24-4.23,1.45-6,.57a3.14,3.14,0,0,1-.67-.54C378.09,321.84,378.83,312.23,376.1,302.33Z" transform="translate(-123.92 -131)"/><path d="M364,328.61c.88,2.65-.17,4.79-2.89,4.93-7.36.36-14.66-.31-21.53-3.14-5.86-2.41-8.51-8.5-6.79-14.94,2.19-8.2,7.58-13,15.85-14.73a35.32,35.32,0,0,1,5.65-1c4.51-.17,9.36,1.47,10.4,7.67,1,5.75.63,6.08-5.1,5.82-6.08-.28-12.2-.14-18.28.16-4.3.21-5.33,1.92-4.68,6.18a9.08,9.08,0,0,0,4.77,7.1,21.74,21.74,0,0,0,13.07,3.05C357.68,329.41,360.84,329,364,328.61Zm-25.46-17.38c7-.23,13.21-.4,19.47-.66,1.4-.06,2-1,2.08-2.42.05-2.4-1.15-4.12-3.68-5.12C350.18,300.54,343.09,303.55,338.59,311.23Z" transform="translate(-123.92 -131)"/><path d="M444.63,330.2c-1.28,4.35-3.61,4.36-6.83,2.8-.86-.42-1.75-.78-2.59-1.23-4.36-2.32-7.59-5.57-7.92-10.78-.24-3.82-.16-7.65-.16-11.48,0-1.19.19-2.37.3-3.62-3.36-2.15-7.63-.22-11.41-2.77a17.08,17.08,0,0,1,2.61-.86c1.3-.18,2.64-.11,3.94-.31,3.79-.57,4.93-1.67,5.52-5.49.33-2.13.33-4.3.62-6.43a10.15,10.15,0,0,1,1-3.72c1.35-2.28,2.77-2.33,5.26-.48-1.78,5.19-3.18,10.45-2.32,16.27,3-.33,5.61.91,8.54.09A4.94,4.94,0,0,1,446.5,304a4,4,0,0,1-4.65,1.7c-3.19-.82-6.38-.33-9.7-.44a37,37,0,0,0-.81,15c.8,4.67,5,8.31,10,9.13.94.15,1.88.31,2.81.48C444.25,329.8,444.33,329.93,444.63,330.2Z" transform="translate(-123.92 -131)"/><path d="M310.86,326.32a37.72,37.72,0,0,0,2.65-3.86c3.1-6.2,6.13-12.44,9.15-18.68a5.81,5.81,0,0,0,.55-2.05c.1-1.33.58-2.61,2-2.58a12.53,12.53,0,0,1,4.34,1.2,2.64,2.64,0,0,1-.2,2.11c-7.16,7.09-11.19,16-14.89,25.12a34,34,0,0,1-2.44,4.78c-1.34,2.21-3.8,2.27-5.15,0-.85-1.4-1.21-3.09-2-4.57-3.77-7.47-6.57-15.45-11.85-22.1a2.65,2.65,0,0,1,.13-3.84c1-1.16,2.11-2,3.73-1,1.23.7,2.67,1.11,2.76,2.93.21,4.32,2.24,8,4.1,11.79a72.25,72.25,0,0,0,3.61,6.58A40.77,40.77,0,0,0,310.86,326.32Z" transform="translate(-123.92 -131)"/><path d="M663.47,331.51c.19-5.26.41-10.63.58-16,.08-2.34.62-4.73-1.36-6.78-.41-.42,0-2.09.5-2.84a3.27,3.27,0,0,0,.37-3.32,4.58,4.58,0,0,1,3.66-5.8c1.45-.15,2.78,1.43,2.63,3.15-.08.93-.22,1.85-.31,2.77,0,.08.15.18.44.51l2.5-.71c3.45-1,6.86-2.11,10.35-2.84,4.15-.87,7.88-.07,10.45,3.77a4.55,4.55,0,0,0,1.2,1c3.9-1.45,7.54-2.94,11.26-4.17a19.36,19.36,0,0,1,10.59-.9c5.23,1.21,7.88,4,8.42,9.37a32.16,32.16,0,0,1-1.34,12.45c-1.23,4.13-2.69,8.19-4,12.29a2.46,2.46,0,0,1-2.59,2c-1.28,0-2.56-.12-3.81-.19a4.91,4.91,0,0,1,1.12-4.94,30.51,30.51,0,0,0,5.91-13.73,17.08,17.08,0,0,0-.7-8.51c-1.73-5.25-4.68-7.31-10.08-6.14a60.32,60.32,0,0,0-11.14,4c-2,.86-2.71,3-2.84,5.1-.29,4.66-.43,9.33-.61,14,0,1.08.05,2.16,0,3.24,0,2.69-1.45,4.2-4.09,4.3a2.12,2.12,0,0,1-2.46-2.07,7.71,7.71,0,0,1,.57-3.12c2.57-6.39,2.27-12.94,1.05-19.49-.79-4.27-5.4-6.82-9.74-5.58-2.07.59-4.06,1.45-6.12,2.11-3.92,1.27-6,4-5.92,8,.1,5,.31,10.07.76,15.08C669.12,331.33,667.65,332.72,663.47,331.51Z" transform="translate(-123.92 -131)"/><path d="M527.44,333.51c-1.87-3.48-3.45-6.48-5.09-9.45-2.66-4.83-5.28-9.67-8-14.43-1.67-2.88-3.59-5.61-5.39-8.41.06-.23,0-.52.18-.67,1.25-1.41,2.39-3.24,4.62-2.81s2.48,2.7,3,4.47c2.51,7.86,6.82,14.71,11.88,21.13a17,17,0,0,0,2.07,1.83c.69-1.09,1.28-1.94,1.79-2.83,2.73-4.78,5.49-9.55,8.14-14.38a35.43,35.43,0,0,0,2.24-5.27c1.14-3.25,2.18-3.93,5.55-3.34a6.34,6.34,0,0,1,1.38.37,3.86,3.86,0,0,1,.81.62c0,.29.09.59,0,.74-4.48,6.34-9.1,12.59-13.42,19-1.43,2.13-2.09,4.79-3.13,7.18a20.06,20.06,0,0,1-1.85,3.81c-4.45,6.15-7.62,13-10.54,19.93-1.09,2.6-1,2.73-3.86,2.44-1-.1-2-.34-3.55-.6Z" transform="translate(-123.92 -131)"/><path d="M474.31,329.21c6.33,2.7,12.19,1.33,17.94-1a10.78,10.78,0,0,0,3-1.9c5.39-4.83,4.49-12.31-1.93-15.87-2.81-1.56-5.79-2.83-8.6-4.39a34.64,34.64,0,0,1-6.3-4.06c-3.49-3.1-3.92-7.79-1.44-11.76,2.09-3.34,5.35-5.06,8.9-6.32,1.34-.48,2.8-.64,4.11-1.17,3.15-1.27,6.39-.69,9.55-.45,2.66.2,2.93,2.1.88,5.08-.31,0-.74.09-1-.07-5.61-3.38-10.8-1.6-15.85,1.34a6.9,6.9,0,0,0-2,2c-2,2.84-1.8,5.69.71,8.09a26.11,26.11,0,0,0,10.54,5.93c5.26,1.64,9.23,5,10.35,10.41a12.65,12.65,0,0,1-5.67,13.77A31.91,31.91,0,0,1,485,333.9a57.31,57.31,0,0,1-7.42,1C474,335.06,473,333.3,474.31,329.21Z" transform="translate(-123.92 -131)"/><path d="M650.3,328c.55,3.16-.63,5.12-3.47,5.25A52.72,52.72,0,0,1,625,330c-5.74-2.25-8.67-7.82-7.74-13.91a20.55,20.55,0,0,1,16.93-17.23c1.89-.31,3.76-.78,5.66-.92,6.22-.49,9.7,2.15,11,8.2.1.47.24.93.33,1.4.82,3.92-.53,4.94-4.62,4.76-6.9-.3-13.84-.3-20.75,0-3.84.17-4.89,2-4.36,5.82a9.84,9.84,0,0,0,5.29,8,22.3,22.3,0,0,0,12.36,3.06C642.75,328.88,646.39,328.43,650.3,328ZM624,309.57c2.65,0,5.1.15,7.54.1,3.94-.08,7.89-.13,11.81-.44,2.5-.2,3-1.21,2.64-3.61s-2-3.67-4.18-4.42C635.27,299,627.47,302.47,624,309.57Z" transform="translate(-123.92 -131)"/><path d="M598.08,303.38a43.39,43.39,0,0,0-1,14.93,12.51,12.51,0,0,0,10.79,10.57c1,.17,2.09.3,3.14.46-.83,4-2.44,5.15-5.67,3.9a30.25,30.25,0,0,1-6.65-3.51c-3.35-2.39-5.56-5.65-5.69-9.94-.12-3.83-.13-7.66-.12-11.49,0-1.42.22-2.83.34-4.29-3.75-1.7-8-.08-12.1-2.75a25.12,25.12,0,0,1,3.16-.87c1.19-.14,2.4,0,3.59-.16,3.88-.48,5.28-1.76,5.9-5.57.33-2,.35-4.05.58-6.08a14.51,14.51,0,0,1,.68-3.85c1.2-2.93,2.81-3.33,6.15-1.65-1.93,5.45-3.47,11-2.75,17.15,3.25-.18,6,.91,9.07.18a5.27,5.27,0,0,1,5.6,1.89c-1.41,1.77-3.14,1.87-5.13,1.67C604.78,303.68,601.58,303.59,598.08,303.38Z" transform="translate(-123.92 -131)"/><path d="M577,297.55l-.93,4.43a20.69,20.69,0,0,1-3.38-1.14c-3.08-1.73-6.28-1.45-9.41-.46a7.15,7.15,0,0,0-3.35,2.47c-1.77,2.4-1,4.87,1.78,6.16a26,26,0,0,0,4.1,1.26c2.42.66,4.91,1.14,7.27,2,5.36,1.88,7.29,6.16,5.2,11.46a12.52,12.52,0,0,1-9,8.08,49.61,49.61,0,0,1-10.32,1c-2.81,0-3.4-.92-3.52-4.59a22.78,22.78,0,0,1,3.36.77A15.28,15.28,0,0,0,569,329a7.84,7.84,0,0,0,5-4.34c1.77-3.67,1-6.62-2.75-8.35a89.81,89.81,0,0,0-8.81-3,17,17,0,0,1-3.63-1.44c-4.62-2.93-4.71-8.59-.22-11.82a10,10,0,0,1,2.54-1.32C566.11,297,571.21,297.11,577,297.55Z" transform="translate(-123.92 -131)"/><path d="M757,297.57,756,302a19.64,19.64,0,0,1-3.35-1.14c-3.08-1.77-6.24-1.3-9.42-.53a5.44,5.44,0,0,0-3.72,3.13c-1,2.12-.5,4.12,1.59,5.21a25.55,25.55,0,0,0,4.73,1.62c2.64.77,5.37,1.28,7.93,2.24,4.25,1.6,6,5.07,5,9.48-1.1,4.67-4,8.13-8.53,9.39a49.19,49.19,0,0,1-11.68,1.33c-2.43.07-3-1.09-3.1-4.57a26.53,26.53,0,0,1,3.36.81A15.23,15.23,0,0,0,749,329a7.73,7.73,0,0,0,4.82-4c2-3.92,1.07-7.06-3-8.84-2.72-1.2-5.66-1.91-8.49-2.85a17.63,17.63,0,0,1-3-1c-5.32-2.93-5.38-9.46-.14-12.63a10.13,10.13,0,0,1,2-.9C746.1,297,751.19,297.09,757,297.57Z" transform="translate(-123.92 -131)"/></svg>